<svg width="18" height="20" viewBox="0 0 18 20" fill="none" xmlns="http://www.w3.org/2000/svg">
<path d="M16.0714 1H1.92857C1.41708 1 0.926543 1.19754 0.564865 1.54917C0.203188 1.90081 0 2.37772 0 2.875L0 16.625C0 17.1223 0.203188 17.5992 0.564865 17.9508C0.926543 18.3025 1.41708 18.5 1.92857 18.5H7.44308V12.5504H4.91183V9.75H7.44308V7.61562C7.44308 5.18789 8.92969 3.84687 11.2066 3.84687C12.2971 3.84687 13.4373 4.03594 13.4373 4.03594V6.41875H12.1809C10.943 6.41875 10.5569 7.16562 10.5569 7.93164V9.75H13.3204L12.8784 12.5504H10.5569V18.5H16.0714C16.5829 18.5 17.0735 18.3025 17.4351 17.9508C17.7968 17.5992 18 17.1223 18 16.625V2.875C18 2.37772 17.7968 1.90081 17.4351 1.54917C17.0735 1.19754 16.5829 1 16.0714 1Z" fill="white"/>
</svg>
