<svg width="18" height="20" viewBox="0 0 18 20" fill="none" xmlns="http://www.w3.org/2000/svg">
<path d="M18 3.125V16.875C18 17.9102 17.1362 18.75 16.0714 18.75H6.20357C6.59732 18.1094 7.10357 17.1875 7.30446 16.4336C7.425 15.9844 7.9192 14.1523 7.9192 14.1523C8.24063 14.75 9.1808 15.2539 10.1812 15.2539C13.1585 15.2539 15.3 12.5938 15.3 9.28906C15.3 6.12109 12.6402 3.75 9.21696 3.75C4.95804 3.75 2.7 6.52734 2.7 9.55469C2.7 10.9609 3.47143 12.7109 4.70089 13.2695C4.88973 13.3555 4.98616 13.3164 5.03036 13.1406C5.0625 13.0078 5.23125 12.3555 5.30357 12.0547C5.32768 11.957 5.31563 11.875 5.23527 11.7812C4.82946 11.3008 4.5 10.418 4.5 9.59375C4.5 7.47656 6.14732 5.42969 8.9558 5.42969C11.3786 5.42969 13.0781 7.03516 13.0781 9.33203C13.0781 11.9258 11.7321 13.7227 9.97634 13.7227C9.00804 13.7227 8.28482 12.9453 8.51384 11.9883C8.79107 10.8477 9.32946 9.61719 9.32946 8.79297C9.32946 6.72266 6.29598 7.00781 6.29598 9.76953C6.29598 10.6172 6.58929 11.1953 6.58929 11.1953C5.32768 16.3828 5.13884 16.4492 5.4 18.7188L5.48839 18.75H1.92857C0.863839 18.75 0 17.9102 0 16.875V3.125C0 2.08984 0.863839 1.25 1.92857 1.25H16.0714C17.1362 1.25 18 2.08984 18 3.125Z" fill="white"/>
</svg>
