<svg width="18" height="20" viewBox="0 0 18 20" fill="none" xmlns="http://www.w3.org/2000/svg">
<path d="M16.0714 1.25H1.92857C0.863839 1.25 0 2.08984 0 3.125V16.875C0 17.9102 0.863839 18.75 1.92857 18.75H16.0714C17.1362 18.75 18 17.9102 18 16.875V3.125C18 2.08984 17.1362 1.25 16.0714 1.25ZM14.1067 7.45312C14.1147 7.5625 14.1147 7.67578 14.1147 7.78516C14.1147 11.1719 11.4629 15.0742 6.61741 15.0742C5.12277 15.0742 3.73661 14.6523 2.57143 13.9258C2.78437 13.9492 2.98929 13.957 3.20625 13.957C4.43973 13.957 5.57277 13.5508 6.47679 12.8633C5.31964 12.8398 4.34732 12.1016 4.01384 11.0859C4.41964 11.1445 4.78527 11.1445 5.20312 11.0391C3.99777 10.8008 3.09375 9.76953 3.09375 8.52344V8.49219C3.4433 8.68359 3.85312 8.80078 4.28304 8.81641C3.9216 8.58267 3.62531 8.26557 3.42059 7.89342C3.21588 7.52127 3.10911 7.10563 3.10982 6.68359C3.10982 6.20703 3.23839 5.76953 3.46741 5.39062C4.76518 6.94531 6.71384 7.96094 8.89955 8.07031C8.52589 6.33203 9.86384 4.92188 11.471 4.92188C12.2304 4.92188 12.9134 5.23047 13.3955 5.73047C13.9902 5.62109 14.5607 5.40625 15.067 5.11328C14.8701 5.70703 14.4563 6.20703 13.9098 6.52344C14.4402 6.46875 14.9545 6.32422 15.4286 6.125C15.071 6.63672 14.621 7.08984 14.1067 7.45312Z" fill="white"/>
</svg>
