<svg width="18" height="20" viewBox="0 0 18 20" fill="none" xmlns="http://www.w3.org/2000/svg">
<path d="M16.0714 1.25H1.92857C0.863839 1.25 0 2.08984 0 3.125V16.875C0 17.9102 0.863839 18.75 1.92857 18.75H16.0714C17.1362 18.75 18 17.9102 18 16.875V3.125C18 2.08984 17.1362 1.25 16.0714 1.25ZM15.4205 7.09375C15.3643 8.30859 14.4884 9.97656 12.7969 12.0898C11.0491 14.2969 9.57054 15.4023 8.36116 15.4023C7.60982 15.4023 6.97902 14.7305 6.46071 13.3867C5.44821 9.78125 5.0183 7.66797 4.18259 7.66797C4.08616 7.66797 3.74866 7.86328 3.17411 8.25781L2.57143 7.5C4.05402 6.23438 5.4683 4.82812 6.35223 4.75C7.35268 4.65625 7.96741 5.32031 8.20045 6.74609C9.02411 11.8086 9.38973 12.5742 10.8844 10.2812C11.4228 9.45312 11.7121 8.82812 11.7482 8.39453C11.8848 7.11328 10.7196 7.19922 9.93214 7.52734C10.5629 5.51562 11.7723 4.53906 13.5522 4.59375C14.8741 4.63281 15.4969 5.46875 15.4205 7.09375Z" fill="white"/>
</svg>
