<svg width="33" height="30" viewBox="0 0 33 30" fill="none" xmlns="http://www.w3.org/2000/svg">
<path d="M26.9328 13.5527C26.9328 13.5527 27.3682 15.7324 27.4656 16.1895H25.5521C25.7411 15.668 26.4688 13.6406 26.4688 13.6406C26.4573 13.6582 26.6578 13.1074 26.7724 12.7676L26.9328 13.5527ZM33 4.6875V25.3125C33 26.8652 31.7682 28.125 30.25 28.125H2.75C1.23177 28.125 0 26.8652 0 25.3125V4.6875C0 3.13477 1.23177 1.875 2.75 1.875H30.25C31.7682 1.875 33 3.13477 33 4.6875ZM8.73698 19.4062L12.3578 10.3125H9.92292L7.67135 16.5234L7.425 15.2637L6.62292 11.0801C6.49115 10.5 6.08438 10.3359 5.58021 10.3125H1.87344L1.83333 10.4941C2.73854 10.7285 3.54635 11.0684 4.25104 11.4961L6.30208 19.4062H8.73698ZM14.1453 19.418L15.5891 10.3125H13.2859L11.8479 19.418H14.1453ZM22.1604 16.4414C22.1719 15.4043 21.5531 14.6133 20.2297 13.9629C19.4219 13.5469 18.9292 13.2656 18.9292 12.8379C18.9406 12.4512 19.3474 12.0527 20.2526 12.0527C21.0031 12.0352 21.5531 12.2168 21.9656 12.3984L22.1719 12.498L22.487 10.5293C22.0344 10.3477 21.3125 10.1426 20.4245 10.1426C18.15 10.1426 16.5516 11.3848 16.5401 13.1543C16.5229 14.4609 17.6859 15.1875 18.5568 15.627C19.4448 16.0723 19.7484 16.3652 19.7484 16.7578C19.737 17.3672 19.0266 17.6484 18.3677 17.6484C17.451 17.6484 16.9583 17.502 16.2078 17.1621L15.9042 17.0156L15.5833 19.0605C16.1219 19.3125 17.1187 19.5352 18.15 19.5469C20.5677 19.5527 22.1432 18.3281 22.1604 16.4414ZM30.25 19.418L28.3938 10.3125H26.612C26.062 10.3125 25.6438 10.4766 25.4089 11.0684L21.9885 19.418H24.4062C24.4062 19.418 24.8016 18.293 24.8875 18.0527H27.8438C27.9125 18.375 28.1187 19.418 28.1187 19.418H30.25Z" fill="white"/>
</svg>
