<svg width="18" height="20" viewBox="0 0 18 20" fill="none" xmlns="http://www.w3.org/2000/svg">
<path d="M7.50536 7.89453L11.3304 10.0078L7.50536 12.1211V7.89453ZM18 3.125V16.875C18 17.9102 17.1362 18.75 16.0714 18.75H1.92857C0.863839 18.75 0 17.9102 0 16.875V3.125C0 2.08984 0.863839 1.25 1.92857 1.25H16.0714C17.1362 1.25 18 2.08984 18 3.125ZM16.3125 10.0117C16.3125 10.0117 16.3125 7.68359 16.0071 6.56641C15.8384 5.94922 15.3442 5.46484 14.7134 5.30078C13.5763 5 9 5 9 5C9 5 4.42366 5 3.28661 5.30078C2.6558 5.46484 2.16161 5.94922 1.99286 6.56641C1.6875 7.67969 1.6875 10.0117 1.6875 10.0117C1.6875 10.0117 1.6875 12.3398 1.99286 13.457C2.16161 14.0742 2.6558 14.5391 3.28661 14.7031C4.42366 15 9 15 9 15C9 15 13.5763 15 14.7134 14.6992C15.3442 14.5352 15.8384 14.0703 16.0071 13.4531C16.3125 12.3398 16.3125 10.0117 16.3125 10.0117Z" fill="white"/>
</svg>
